<!-- Tide app icon. Mirrors app/src/main/res/drawable/ic_launcher_{background,foreground}.xml
     Canvas is the 108dp adaptive-icon grid; the crest stays inside the 72dp visible circle. -->
<svg xmlns="http://www.w3.org/2000/svg" width="512" height="512" viewBox="0 0 108 108">
  <rect x="-4" y="-4" width="116" height="116" fill="#D5E6F7"/>
  <path fill="#BFD9F1" d="M-4,64 C14,60 30,75 54,75 C80,75 94,62 112,66 V112 H-4 Z"/>
  <path fill="#8FBBDE" d="M-4,79 C16,71 32,88 56,88 C80,88 94,75 112,79 V112 H-4 Z"/>
  <path fill="#4A87BA" d="M-4,92 C16,85 34,99 58,99 C82,99 96,90 112,92 V112 H-4 Z"/>
  <path fill="#1E4E79" d="M-4,101 C18,96 36,107 60,107 C84,107 98,101 112,102 V112 H-4 Z"/>
  <path fill="#E7F1FB" d="M22,58 C32,55 40,51 48,45 C57,40 67,34 75,39 C84,45 84,58 74,63 C66,67 57,64 55,57 C42,68 28,68 22,58 Z"/>
  <path fill="#F8FCFF" d="M20,54 C30,50 38,47 50,40 C58,35 68,28 76,33 C86,39 87,53 77,59 C69,64 58,61 56,53 C55,47 60,43 65,45 C60,41 53,45 51,51 C48,60 53,68 61,70 C44,74 28,70 20,54 Z"/>
</svg>
